<?xml version="1.0" encoding="utf-8" standalone="no"?>
<!DOCTYPE svg PUBLIC "-//W3C//DTD SVG 1.1//EN"
  "http://www.w3.org/Graphics/SVG/1.1/DTD/svg11.dtd">
<svg xmlns:xlink="http://www.w3.org/1999/xlink" width="576pt" height="576pt" viewBox="0 0 576 576" xmlns="http://www.w3.org/2000/svg" version="1.1">
 <metadata>
  <rdf:RDF xmlns:dc="http://purl.org/dc/elements/1.1/" xmlns:cc="http://creativecommons.org/ns#" xmlns:rdf="http://www.w3.org/1999/02/22-rdf-syntax-ns#">
   <cc:Work>
    <dc:type rdf:resource="http://purl.org/dc/dcmitype/StillImage"/>
    <dc:date>2025-11-26T13:52:44.465195</dc:date>
    <dc:format>image/svg+xml</dc:format>
    <dc:creator>
     <cc:Agent>
      <dc:title>Matplotlib v3.10.6, https://matplotlib.org/</dc:title>
     </cc:Agent>
    </dc:creator>
   </cc:Work>
  </rdf:RDF>
 </metadata>
 <defs>
  <style type="text/css">*{stroke-linejoin: round; stroke-linecap: butt}</style>
 </defs>
 <g id="figure_1">
  <g id="patch_1">
   <path d="M 0 576 
L 576 576 
L 576 0 
L 0 0 
z
" style="fill: #ffffff"/>
  </g>
  <g id="axes_1">
   <g id="patch_2">
    <path d="M 72 512.64 
L 518.4 512.64 
L 518.4 69.12 
L 72 69.12 
z
" style="fill: #ffffff"/>
   </g>
   <g id="matplotlib.axis_1">
    <g id="xtick_1">
     <g id="line2d_1">
      <defs>
       <path id="mf7d8b26035" d="M 0 0 
L 0 3.5 
" style="stroke: #000000; stroke-width: 0.8"/>
      </defs>
      <g>
       <use xlink:href="#mf7d8b26035" x="110.262857" y="512.64" style="stroke: #000000; stroke-width: 0.8"/>
      </g>
     </g>
     <g id="text_1">
      <!-- −60 -->
      <g transform="translate(99.710513 527.238438) scale(0.1 -0.1)">
       <defs>
        <path id="DejaVuSans-2212" d="M 678 2272 
L 4684 2272 
L 4684 1741 
L 678 1741 
L 678 2272 
z
" transform="scale(0.015625)"/>
        <path id="DejaVuSans-36" d="M 2113 2584 
Q 1688 2584 1439 2293 
Q 1191 2003 1191 1497 
Q 1191 994 1439 701 
Q 1688 409 2113 409 
Q 2538 409 2786 701 
Q 3034 994 3034 1497 
Q 3034 2003 2786 2293 
Q 2538 2584 2113 2584 
z
M 3366 4563 
L 3366 3988 
Q 3128 4100 2886 4159 
Q 2644 4219 2406 4219 
Q 1781 4219 1451 3797 
Q 1122 3375 1075 2522 
Q 1259 2794 1537 2939 
Q 1816 3084 2150 3084 
Q 2853 3084 3261 2657 
Q 3669 2231 3669 1497 
Q 3669 778 3244 343 
Q 2819 -91 2113 -91 
Q 1303 -91 875 529 
Q 447 1150 447 2328 
Q 447 3434 972 4092 
Q 1497 4750 2381 4750 
Q 2619 4750 2861 4703 
Q 3103 4656 3366 4563 
z
" transform="scale(0.015625)"/>
        <path id="DejaVuSans-30" d="M 2034 4250 
Q 1547 4250 1301 3770 
Q 1056 3291 1056 2328 
Q 1056 1369 1301 889 
Q 1547 409 2034 409 
Q 2525 409 2770 889 
Q 3016 1369 3016 2328 
Q 3016 3291 2770 3770 
Q 2525 4250 2034 4250 
z
M 2034 4750 
Q 2819 4750 3233 4129 
Q 3647 3509 3647 2328 
Q 3647 1150 3233 529 
Q 2819 -91 2034 -91 
Q 1250 -91 836 529 
Q 422 1150 422 2328 
Q 422 3509 836 4129 
Q 1250 4750 2034 4750 
z
" transform="scale(0.015625)"/>
       </defs>
       <use xlink:href="#DejaVuSans-2212"/>
       <use xlink:href="#DejaVuSans-36" transform="translate(83.789062 0)"/>
       <use xlink:href="#DejaVuSans-30" transform="translate(147.412109 0)"/>
      </g>
     </g>
    </g>
    <g id="xtick_2">
     <g id="line2d_2">
      <g>
       <use xlink:href="#mf7d8b26035" x="161.28" y="512.64" style="stroke: #000000; stroke-width: 0.8"/>
      </g>
     </g>
     <g id="text_2">
      <!-- −40 -->
      <g transform="translate(150.727656 527.238438) scale(0.1 -0.1)">
       <defs>
        <path id="DejaVuSans-34" d="M 2419 4116 
L 825 1625 
L 2419 1625 
L 2419 4116 
z
M 2253 4666 
L 3047 4666 
L 3047 1625 
L 3713 1625 
L 3713 1100 
L 3047 1100 
L 3047 0 
L 2419 0 
L 2419 1100 
L 313 1100 
L 313 1709 
L 2253 4666 
z
" transform="scale(0.015625)"/>
       </defs>
       <use xlink:href="#DejaVuSans-2212"/>
       <use xlink:href="#DejaVuSans-34" transform="translate(83.789062 0)"/>
       <use xlink:href="#DejaVuSans-30" transform="translate(147.412109 0)"/>
      </g>
     </g>
    </g>
    <g id="xtick_3">
     <g id="line2d_3">
      <g>
       <use xlink:href="#mf7d8b26035" x="212.297143" y="512.64" style="stroke: #000000; stroke-width: 0.8"/>
      </g>
     </g>
     <g id="text_3">
      <!-- −20 -->
      <g transform="translate(201.744799 527.238438) scale(0.1 -0.1)">
       <defs>
        <path id="DejaVuSans-32" d="M 1228 531 
L 3431 531 
L 3431 0 
L 469 0 
L 469 531 
Q 828 903 1448 1529 
Q 2069 2156 2228 2338 
Q 2531 2678 2651 2914 
Q 2772 3150 2772 3378 
Q 2772 3750 2511 3984 
Q 2250 4219 1831 4219 
Q 1534 4219 1204 4116 
Q 875 4013 500 3803 
L 500 4441 
Q 881 4594 1212 4672 
Q 1544 4750 1819 4750 
Q 2544 4750 2975 4387 
Q 3406 4025 3406 3419 
Q 3406 3131 3298 2873 
Q 3191 2616 2906 2266 
Q 2828 2175 2409 1742 
Q 1991 1309 1228 531 
z
" transform="scale(0.015625)"/>
       </defs>
       <use xlink:href="#DejaVuSans-2212"/>
       <use xlink:href="#DejaVuSans-32" transform="translate(83.789062 0)"/>
       <use xlink:href="#DejaVuSans-30" transform="translate(147.412109 0)"/>
      </g>
     </g>
    </g>
    <g id="xtick_4">
     <g id="line2d_4">
      <g>
       <use xlink:href="#mf7d8b26035" x="263.314286" y="512.64" style="stroke: #000000; stroke-width: 0.8"/>
      </g>
     </g>
     <g id="text_4">
      <!-- 0 -->
      <g transform="translate(260.133036 527.238438) scale(0.1 -0.1)">
       <use xlink:href="#DejaVuSans-30"/>
      </g>
     </g>
    </g>
    <g id="xtick_5">
     <g id="line2d_5">
      <g>
       <use xlink:href="#mf7d8b26035" x="314.331429" y="512.64" style="stroke: #000000; stroke-width: 0.8"/>
      </g>
     </g>
     <g id="text_5">
      <!-- 20 -->
      <g transform="translate(307.968929 527.238438) scale(0.1 -0.1)">
       <use xlink:href="#DejaVuSans-32"/>
       <use xlink:href="#DejaVuSans-30" transform="translate(63.623047 0)"/>
      </g>
     </g>
    </g>
    <g id="xtick_6">
     <g id="line2d_6">
      <g>
       <use xlink:href="#mf7d8b26035" x="365.348571" y="512.64" style="stroke: #000000; stroke-width: 0.8"/>
      </g>
     </g>
     <g id="text_6">
      <!-- 40 -->
      <g transform="translate(358.986071 527.238438) scale(0.1 -0.1)">
       <use xlink:href="#DejaVuSans-34"/>
       <use xlink:href="#DejaVuSans-30" transform="translate(63.623047 0)"/>
      </g>
     </g>
    </g>
    <g id="xtick_7">
     <g id="line2d_7">
      <g>
       <use xlink:href="#mf7d8b26035" x="416.365714" y="512.64" style="stroke: #000000; stroke-width: 0.8"/>
      </g>
     </g>
     <g id="text_7">
      <!-- 60 -->
      <g transform="translate(410.003214 527.238438) scale(0.1 -0.1)">
       <use xlink:href="#DejaVuSans-36"/>
       <use xlink:href="#DejaVuSans-30" transform="translate(63.623047 0)"/>
      </g>
     </g>
    </g>
    <g id="xtick_8">
     <g id="line2d_8">
      <g>
       <use xlink:href="#mf7d8b26035" x="467.382857" y="512.64" style="stroke: #000000; stroke-width: 0.8"/>
      </g>
     </g>
     <g id="text_8">
      <!-- 80 -->
      <g transform="translate(461.020357 527.238438) scale(0.1 -0.1)">
       <defs>
        <path id="DejaVuSans-38" d="M 2034 2216 
Q 1584 2216 1326 1975 
Q 1069 1734 1069 1313 
Q 1069 891 1326 650 
Q 1584 409 2034 409 
Q 2484 409 2743 651 
Q 3003 894 3003 1313 
Q 3003 1734 2745 1975 
Q 2488 2216 2034 2216 
z
M 1403 2484 
Q 997 2584 770 2862 
Q 544 3141 544 3541 
Q 544 4100 942 4425 
Q 1341 4750 2034 4750 
Q 2731 4750 3128 4425 
Q 3525 4100 3525 3541 
Q 3525 3141 3298 2862 
Q 3072 2584 2669 2484 
Q 3125 2378 3379 2068 
Q 3634 1759 3634 1313 
Q 3634 634 3220 271 
Q 2806 -91 2034 -91 
Q 1263 -91 848 271 
Q 434 634 434 1313 
Q 434 1759 690 2068 
Q 947 2378 1403 2484 
z
M 1172 3481 
Q 1172 3119 1398 2916 
Q 1625 2713 2034 2713 
Q 2441 2713 2670 2916 
Q 2900 3119 2900 3481 
Q 2900 3844 2670 4047 
Q 2441 4250 2034 4250 
Q 1625 4250 1398 4047 
Q 1172 3844 1172 3481 
z
" transform="scale(0.015625)"/>
       </defs>
       <use xlink:href="#DejaVuSans-38"/>
       <use xlink:href="#DejaVuSans-30" transform="translate(63.623047 0)"/>
      </g>
     </g>
    </g>
    <g id="xtick_9">
     <g id="line2d_9">
      <g>
       <use xlink:href="#mf7d8b26035" x="518.4" y="512.64" style="stroke: #000000; stroke-width: 0.8"/>
      </g>
     </g>
     <g id="text_9">
      <!-- 100 -->
      <g transform="translate(508.85625 527.238438) scale(0.1 -0.1)">
       <defs>
        <path id="DejaVuSans-31" d="M 794 531 
L 1825 531 
L 1825 4091 
L 703 3866 
L 703 4441 
L 1819 4666 
L 2450 4666 
L 2450 531 
L 3481 531 
L 3481 0 
L 794 0 
L 794 531 
z
" transform="scale(0.015625)"/>
       </defs>
       <use xlink:href="#DejaVuSans-31"/>
       <use xlink:href="#DejaVuSans-30" transform="translate(63.623047 0)"/>
       <use xlink:href="#DejaVuSans-30" transform="translate(127.246094 0)"/>
      </g>
     </g>
    </g>
    <g id="text_10">
     <!-- w1 -->
     <g transform="translate(287.929688 540.916563) scale(0.1 -0.1)">
      <defs>
       <path id="DejaVuSans-77" d="M 269 3500 
L 844 3500 
L 1563 769 
L 2278 3500 
L 2956 3500 
L 3675 769 
L 4391 3500 
L 4966 3500 
L 4050 0 
L 3372 0 
L 2619 2869 
L 1863 0 
L 1184 0 
L 269 3500 
z
" transform="scale(0.015625)"/>
      </defs>
      <use xlink:href="#DejaVuSans-77"/>
      <use xlink:href="#DejaVuSans-31" transform="translate(81.787109 0)"/>
     </g>
    </g>
   </g>
   <g id="matplotlib.axis_2">
    <g id="ytick_1">
     <g id="line2d_10">
      <defs>
       <path id="md8049062bf" d="M 0 0 
L -3.5 0 
" style="stroke: #000000; stroke-width: 0.8"/>
      </defs>
      <g>
       <use xlink:href="#md8049062bf" x="72" y="474.624" style="stroke: #000000; stroke-width: 0.8"/>
      </g>
     </g>
     <g id="text_11">
      <!-- −60 -->
      <g transform="translate(43.895313 478.423219) scale(0.1 -0.1)">
       <use xlink:href="#DejaVuSans-2212"/>
       <use xlink:href="#DejaVuSans-36" transform="translate(83.789062 0)"/>
       <use xlink:href="#DejaVuSans-30" transform="translate(147.412109 0)"/>
      </g>
     </g>
    </g>
    <g id="ytick_2">
     <g id="line2d_11">
      <g>
       <use xlink:href="#md8049062bf" x="72" y="423.936" style="stroke: #000000; stroke-width: 0.8"/>
      </g>
     </g>
     <g id="text_12">
      <!-- −40 -->
      <g transform="translate(43.895313 427.735219) scale(0.1 -0.1)">
       <use xlink:href="#DejaVuSans-2212"/>
       <use xlink:href="#DejaVuSans-34" transform="translate(83.789062 0)"/>
       <use xlink:href="#DejaVuSans-30" transform="translate(147.412109 0)"/>
      </g>
     </g>
    </g>
    <g id="ytick_3">
     <g id="line2d_12">
      <g>
       <use xlink:href="#md8049062bf" x="72" y="373.248" style="stroke: #000000; stroke-width: 0.8"/>
      </g>
     </g>
     <g id="text_13">
      <!-- −20 -->
      <g transform="translate(43.895313 377.047219) scale(0.1 -0.1)">
       <use xlink:href="#DejaVuSans-2212"/>
       <use xlink:href="#DejaVuSans-32" transform="translate(83.789062 0)"/>
       <use xlink:href="#DejaVuSans-30" transform="translate(147.412109 0)"/>
      </g>
     </g>
    </g>
    <g id="ytick_4">
     <g id="line2d_13">
      <g>
       <use xlink:href="#md8049062bf" x="72" y="322.56" style="stroke: #000000; stroke-width: 0.8"/>
      </g>
     </g>
     <g id="text_14">
      <!-- 0 -->
      <g transform="translate(58.6375 326.359219) scale(0.1 -0.1)">
       <use xlink:href="#DejaVuSans-30"/>
      </g>
     </g>
    </g>
    <g id="ytick_5">
     <g id="line2d_14">
      <g>
       <use xlink:href="#md8049062bf" x="72" y="271.872" style="stroke: #000000; stroke-width: 0.8"/>
      </g>
     </g>
     <g id="text_15">
      <!-- 20 -->
      <g transform="translate(52.275 275.671219) scale(0.1 -0.1)">
       <use xlink:href="#DejaVuSans-32"/>
       <use xlink:href="#DejaVuSans-30" transform="translate(63.623047 0)"/>
      </g>
     </g>
    </g>
    <g id="ytick_6">
     <g id="line2d_15">
      <g>
       <use xlink:href="#md8049062bf" x="72" y="221.184" style="stroke: #000000; stroke-width: 0.8"/>
      </g>
     </g>
     <g id="text_16">
      <!-- 40 -->
      <g transform="translate(52.275 224.983219) scale(0.1 -0.1)">
       <use xlink:href="#DejaVuSans-34"/>
       <use xlink:href="#DejaVuSans-30" transform="translate(63.623047 0)"/>
      </g>
     </g>
    </g>
    <g id="ytick_7">
     <g id="line2d_16">
      <g>
       <use xlink:href="#md8049062bf" x="72" y="170.496" style="stroke: #000000; stroke-width: 0.8"/>
      </g>
     </g>
     <g id="text_17">
      <!-- 60 -->
      <g transform="translate(52.275 174.295219) scale(0.1 -0.1)">
       <use xlink:href="#DejaVuSans-36"/>
       <use xlink:href="#DejaVuSans-30" transform="translate(63.623047 0)"/>
      </g>
     </g>
    </g>
    <g id="ytick_8">
     <g id="line2d_17">
      <g>
       <use xlink:href="#md8049062bf" x="72" y="119.808" style="stroke: #000000; stroke-width: 0.8"/>
      </g>
     </g>
     <g id="text_18">
      <!-- 80 -->
      <g transform="translate(52.275 123.607219) scale(0.1 -0.1)">
       <use xlink:href="#DejaVuSans-38"/>
       <use xlink:href="#DejaVuSans-30" transform="translate(63.623047 0)"/>
      </g>
     </g>
    </g>
    <g id="ytick_9">
     <g id="line2d_18">
      <g>
       <use xlink:href="#md8049062bf" x="72" y="69.12" style="stroke: #000000; stroke-width: 0.8"/>
      </g>
     </g>
     <g id="text_19">
      <!-- 100 -->
      <g transform="translate(45.9125 72.919219) scale(0.1 -0.1)">
       <use xlink:href="#DejaVuSans-31"/>
       <use xlink:href="#DejaVuSans-30" transform="translate(63.623047 0)"/>
       <use xlink:href="#DejaVuSans-30" transform="translate(127.246094 0)"/>
      </g>
     </g>
    </g>
    <g id="text_20">
     <!-- w2 -->
     <g transform="translate(37.815625 298.150312) rotate(-90) scale(0.1 -0.1)">
      <use xlink:href="#DejaVuSans-77"/>
      <use xlink:href="#DejaVuSans-32" transform="translate(81.787109 0)"/>
     </g>
    </g>
   </g>
   <g id="QuadContourSet_1">
    <path d="M 253.008547 307.455251 
L 262.547495 297.977844 
L 263.442084 297.342974 
L 288.695059 322.433026 
L 287.595992 323.77895 
L 263.442084 347.777026 
L 262.547495 347.142156 
L 238.393587 323.072975 
L 237.933513 322.433026 
L 240.750263 319.634449 
L 240.750263 319.634449 
" clip-path="url(#pbf7e5f854b)" style="fill: none; stroke-dasharray: 5.55,2.4; stroke-dashoffset: 0; stroke: #440154; stroke-width: 1.5"/>
    <path d="M 295.546235 303.896001 
L 314.20363 322.433026 
L 313.539078 323.347238 
L 263.406301 373.095631 
L 262.266338 372.206814 
L 213.063934 323.321844 
L 212.450501 322.407631 
L 262.547495 272.633844 
L 263.442084 271.998974 
L 283.224106 291.65337 
L 283.224106 291.65337 
" clip-path="url(#pbf7e5f854b)" style="fill: none; stroke-dasharray: 5.55,2.4; stroke-dashoffset: 0; stroke: #21918c; stroke-width: 1.5"/>
    <path d="M 272.112003 389.851042 
L 263.442084 398.465026 
L 262.547495 397.830156 
L 187.402004 323.108527 
L 186.91637 322.433026 
L 262.547495 247.289844 
L 263.442084 246.654974 
L 339.712202 322.433026 
L 339.073209 323.321844 
L 284.370287 377.671844 
L 284.370287 377.671844 
" clip-path="url(#pbf7e5f854b)" style="fill: none; stroke-dasharray: 5.55,2.4; stroke-dashoffset: 0; stroke: #fde725; stroke-width: 1.5"/>
   </g>
   <g id="QuadContourSet_2">
    <path d="M 299.789765 197.127242 
L 301.909419 196.150777 
L 304.593186 195.099327 
L 307.276954 194.237296 
L 310.855311 193.368325 
L 314.433667 192.805883 
L 317.117435 192.579912 
L 320.695792 192.538616 
L 323.379559 192.702352 
L 326.063327 193.039905 
L 328.765703 193.554469 
L 332.069145 194.443287 
L 334.616063 195.332104 
L 336.798397 196.24372 
L 339.482164 197.580383 
L 342.165932 199.172859 
L 344.849699 201.062687 
L 346.638878 202.511454 
L 348.509778 204.220281 
L 350.23406 205.997916 
L 352.467575 208.664369 
L 354.357964 211.330822 
L 355.957469 213.997275 
L 357.373948 216.811482 
L 358.42879 219.33018 
L 359.347207 221.996633 
L 360.077931 224.663086 
L 360.773811 228.218357 
L 361.100576 230.88481 
L 361.283113 234.44008 
L 361.184703 237.995351 
L 360.80536 241.550621 
L 360.140577 245.105892 
L 359.44711 247.772345 
L 358.581691 250.438798 
L 357.373948 253.473563 
L 356.291035 255.771703 
L 354.69018 258.682136 
L 352.901002 261.455064 
L 351.111824 263.862662 
L 348.909933 266.437515 
L 346.638878 268.746269 
L 344.22897 270.881603 
L 341.937822 272.659238 
L 339.310482 274.436874 
L 336.21958 276.214509 
L 334.114629 277.252943 
L 331.430862 278.387895 
L 328.747094 279.328105 
L 326.063327 280.083841 
L 323.379559 280.664663 
L 319.801202 281.168573 
L 316.222846 281.377848 
L 313.539078 281.33949 
L 310.855311 281.132173 
L 307.648282 280.658597 
L 305.487776 280.195572 
L 302.804008 279.451105 
L 300.12024 278.507267 
L 296.929082 277.103327 
L 294.752705 275.952975 
L 292.068938 274.291257 
L 289.38517 272.319117 
L 287.595992 270.806535 
L 285.806814 269.103968 
L 285.806814 269.103968 
L 283.392319 266.437515 
L 281.996264 264.65988 
L 280.173438 261.993427 
L 278.629491 259.326974 
L 277.335274 256.660521 
L 276.258004 253.994068 
L 275.381728 251.327615 
L 274.692023 248.661162 
L 274.04337 245.105892 
L 273.692677 241.550621 
L 273.62619 237.995351 
L 273.840861 234.44008 
L 274.336933 230.88481 
L 275.121855 227.329539 
L 276.210991 223.774269 
L 277.237571 221.107816 
L 278.745194 217.872123 
L 278.745194 217.872123 
" clip-path="url(#pbf7e5f854b)" style="fill: none; stroke: #fde725; stroke-width: 1.5"/>
    <path d="M 357.754976 282.299486 
L 355.58477 284.21587 
L 352.205899 286.880321 
L 349.322645 288.888806 
L 345.744289 291.079935 
L 342.165932 292.970576 
L 338.587575 294.585651 
L 335.009218 295.947397 
L 331.430862 297.068845 
L 327.852505 297.96276 
L 324.274148 298.637114 
L 320.695792 299.096298 
L 317.117435 299.345096 
L 313.539078 299.381933 
L 309.960721 299.206732 
L 306.382365 298.815598 
L 302.804008 298.204315 
L 299.225651 297.362937 
L 295.647295 296.279016 
L 291.92654 294.879679 
L 288.490581 293.318451 
L 285.806814 291.903662 
L 283.123046 290.302139 
L 280.439279 288.492427 
L 277.195636 285.991503 
L 275.071743 284.14344 
L 272.387976 281.524966 
L 269.704208 278.527809 
L 267.867372 276.214509 
L 265.974864 273.548056 
L 264.292401 270.881603 
L 262.343741 267.326333 
L 260.693263 263.771062 
L 259.316266 260.215792 
L 258.187251 256.660521 
L 257.292986 253.105251 
L 256.621165 249.54998 
L 256.160326 245.994709 
L 255.907203 242.439439 
L 255.855325 238.884168 
L 256.003159 235.328898 
L 256.350122 231.773627 
L 256.900782 228.218357 
L 257.656412 224.663086 
L 258.623648 221.107816 
L 259.863727 217.408962 
L 261.232455 213.997275 
L 262.901555 210.442004 
L 264.840157 206.886733 
L 267.07439 203.331463 
L 269.644666 199.776192 
L 271.823841 197.109739 
L 274.246909 194.443287 
L 276.958433 191.776834 
L 280.014538 189.110381 
L 283.123046 186.711911 
L 286.116309 184.666293 
L 289.38517 182.695097 
L 292.963527 180.823419 
L 296.541884 179.223612 
L 300.12024 177.878675 
L 304.080712 176.666934 
L 307.817574 175.778116 
L 310.855311 175.231559 
L 314.433667 174.78492 
L 318.012024 174.551382 
L 321.590381 174.527727 
L 325.168737 174.715595 
L 328.747094 175.119952 
L 332.481744 175.778116 
L 336.138436 176.666934 
L 339.482164 177.701215 
L 343.060521 179.059813 
L 346.638878 180.698513 
L 349.322645 182.127307 
L 352.055872 183.777475 
L 354.69018 185.573564 
L 357.373948 187.638233 
L 360.090713 189.999198 
L 362.787956 192.665651 
L 365.425251 195.649173 
L 367.266382 197.998557 
L 369.133235 200.66501 
L 371.301248 204.220281 
L 372.714097 206.886733 
L 374.371142 210.517799 
L 375.693962 213.997275 
L 376.801497 217.552545 
L 377.675996 221.107816 
L 378.329625 224.663086 
L 378.77268 228.218357 
L 379.008401 231.773627 
L 379.042714 235.328898 
L 378.844088 239.304735 
L 378.511514 242.439439 
L 377.945613 245.994709 
L 377.05491 250.010535 
L 376.160321 253.186652 
L 374.976769 256.660521 
L 374.645627 257.531668 
L 374.645627 257.531668 
" clip-path="url(#pbf7e5f854b)" style="fill: none; stroke: #21918c; stroke-width: 1.5"/>
    <path d="M 273.89228 172.393999 
L 276.860922 170.36 
L 280.439279 168.149085 
L 284.357368 166.001122 
L 288.490581 164.020777 
L 292.280331 162.445852 
L 296.541884 160.933576 
L 300.43758 159.779399 
L 304.593186 158.778267 
L 309.066132 157.959217 
L 313.539078 157.402996 
L 318.012024 157.103031 
L 322.48497 157.061532 
L 326.957916 157.279089 
L 331.430862 157.759328 
L 335.903808 158.509444 
L 339.482164 159.310344 
L 343.060521 160.297154 
L 346.857471 161.557034 
L 350.217234 162.865487 
L 353.795591 164.470955 
L 357.373948 166.312583 
L 360.952305 168.410956 
L 364.530661 170.793905 
L 368.109018 173.496421 
L 370.813786 175.778116 
L 373.667194 178.444569 
L 376.243602 181.111022 
L 378.844088 184.098038 
L 381.527856 187.551346 
L 383.831227 190.888016 
L 386.010344 194.443287 
L 387.92997 197.998557 
L 389.616227 201.553828 
L 391.368337 205.858813 
L 392.637411 209.553186 
L 393.896878 213.997275 
L 394.878643 218.441363 
L 395.594454 222.885451 
L 396.055408 227.329539 
L 396.266713 231.773627 
L 396.233032 236.217715 
L 395.956189 240.661804 
L 395.43338 245.105892 
L 394.663758 249.54998 
L 393.640598 253.994068 
L 392.356925 258.438156 
L 391.132957 261.993427 
L 389.346359 266.437515 
L 387.699929 269.992786 
L 385.845838 273.548056 
L 383.769151 277.103327 
L 381.452446 280.658597 
L 378.844088 284.245889 
L 375.985558 287.769138 
L 372.762715 291.324409 
L 369.898196 294.171557 
L 366.31984 297.374884 
L 363.636072 299.55052 
L 360.057715 302.183516 
L 356.290662 304.656673 
L 352.901002 306.644443 
L 349.322645 308.517923 
L 345.744289 310.176741 
L 341.808064 311.767214 
L 337.692986 313.183031 
L 333.22004 314.449812 
L 328.747094 315.441458 
L 324.274148 316.168593 
L 319.801202 316.634243 
L 315.328257 316.843579 
L 310.855311 316.795115 
L 306.382365 316.486874 
L 301.909419 315.913506 
L 297.436473 315.067261 
L 293.858116 314.18616 
L 290.27976 313.115286 
L 286.496972 311.767214 
L 283.123046 310.365092 
L 279.544689 308.658708 
L 275.966333 306.708154 
L 272.387976 304.489692 
L 268.809619 301.973182 
L 265.231263 299.116163 
L 262.479989 296.657315 
L 259.784488 293.990862 
L 257.17996 291.133491 
L 254.435712 287.769138 
L 251.812425 284.133388 
L 249.597431 280.658597 
L 247.592877 277.103327 
L 245.830347 273.548056 
L 244.290161 269.992786 
L 242.866533 266.177224 
L 241.56189 261.993427 
L 240.451768 257.549339 
L 239.612336 253.105251 
L 239.032255 248.661162 
L 238.704321 244.217074 
L 238.622949 239.772986 
L 238.786299 235.328898 
L 239.192547 230.88481 
L 239.8462 226.440721 
L 240.749417 221.996633 
L 241.909011 217.552545 
L 243.029571 213.997275 
L 244.679673 209.553186 
L 246.625486 205.109098 
L 248.408006 201.553828 
L 250.306824 198.169911 
L 250.306824 198.169911 
" clip-path="url(#pbf7e5f854b)" style="fill: none; stroke: #440154; stroke-width: 1.5"/>
   </g>
   <g id="patch_3">
    <path d="M 72 512.64 
L 72 69.12 
" style="fill: none; stroke: #000000; stroke-width: 0.8; stroke-linejoin: miter; stroke-linecap: square"/>
   </g>
   <g id="patch_4">
    <path d="M 518.4 512.64 
L 518.4 69.12 
" style="fill: none; stroke: #000000; stroke-width: 0.8; stroke-linejoin: miter; stroke-linecap: square"/>
   </g>
   <g id="patch_5">
    <path d="M 72 512.64 
L 518.4 512.64 
" style="fill: none; stroke: #000000; stroke-width: 0.8; stroke-linejoin: miter; stroke-linecap: square"/>
   </g>
   <g id="patch_6">
    <path d="M 72 69.12 
L 518.4 69.12 
" style="fill: none; stroke: #000000; stroke-width: 0.8; stroke-linejoin: miter; stroke-linecap: square"/>
   </g>
   <g id="text_21">
    <g clip-path="url(#pbf7e5f854b)">
     <!-- 10 -->
     <g style="fill: #440154" transform="translate(244.824481 318.698338) rotate(-44.814577) scale(0.08 -0.08)">
      <use xlink:href="#DejaVuSans-31"/>
      <use xlink:href="#DejaVuSans-30" transform="translate(63.623047 0)"/>
     </g>
    </g>
   </g>
   <g id="text_22">
    <g clip-path="url(#pbf7e5f854b)">
     <!-- 20 -->
     <g style="fill: #21918c" transform="translate(284.218489 295.75316) rotate(-315.185423) scale(0.08 -0.08)">
      <use xlink:href="#DejaVuSans-32"/>
      <use xlink:href="#DejaVuSans-30" transform="translate(63.623047 0)"/>
     </g>
    </g>
   </g>
   <g id="text_23">
    <g clip-path="url(#pbf7e5f854b)">
     <!-- 30 -->
     <g style="fill: #fde725" transform="translate(276.186221 388.914931) rotate(-44.814577) scale(0.08 -0.08)">
      <defs>
       <path id="DejaVuSans-33" d="M 2597 2516 
Q 3050 2419 3304 2112 
Q 3559 1806 3559 1356 
Q 3559 666 3084 287 
Q 2609 -91 1734 -91 
Q 1441 -91 1130 -33 
Q 819 25 488 141 
L 488 750 
Q 750 597 1062 519 
Q 1375 441 1716 441 
Q 2309 441 2620 675 
Q 2931 909 2931 1356 
Q 2931 1769 2642 2001 
Q 2353 2234 1838 2234 
L 1294 2234 
L 1294 2753 
L 1863 2753 
Q 2328 2753 2575 2939 
Q 2822 3125 2822 3475 
Q 2822 3834 2567 4026 
Q 2313 4219 1838 4219 
Q 1578 4219 1281 4162 
Q 984 4106 628 3988 
L 628 4550 
Q 988 4650 1302 4700 
Q 1616 4750 1894 4750 
Q 2613 4750 3031 4423 
Q 3450 4097 3450 3541 
Q 3450 3153 3228 2886 
Q 3006 2619 2597 2516 
z
" transform="scale(0.015625)"/>
      </defs>
      <use xlink:href="#DejaVuSans-33"/>
      <use xlink:href="#DejaVuSans-30" transform="translate(63.623047 0)"/>
     </g>
    </g>
   </g>
   <g id="text_24">
    <g clip-path="url(#pbf7e5f854b)">
     <!-- 536.2 -->
     <g style="fill: #fde725" transform="translate(280.993587 215.415974) rotate(-44.607034) scale(0.08 -0.08)">
      <defs>
       <path id="DejaVuSans-35" d="M 691 4666 
L 3169 4666 
L 3169 4134 
L 1269 4134 
L 1269 2991 
Q 1406 3038 1543 3061 
Q 1681 3084 1819 3084 
Q 2600 3084 3056 2656 
Q 3513 2228 3513 1497 
Q 3513 744 3044 326 
Q 2575 -91 1722 -91 
Q 1428 -91 1123 -41 
Q 819 9 494 109 
L 494 744 
Q 775 591 1075 516 
Q 1375 441 1709 441 
Q 2250 441 2565 725 
Q 2881 1009 2881 1497 
Q 2881 1984 2565 2268 
Q 2250 2553 1709 2553 
Q 1456 2553 1204 2497 
Q 953 2441 691 2322 
L 691 4666 
z
" transform="scale(0.015625)"/>
       <path id="DejaVuSans-2e" d="M 684 794 
L 1344 794 
L 1344 0 
L 684 0 
L 684 794 
z
" transform="scale(0.015625)"/>
      </defs>
      <use xlink:href="#DejaVuSans-35"/>
      <use xlink:href="#DejaVuSans-33" transform="translate(63.623047 0)"/>
      <use xlink:href="#DejaVuSans-36" transform="translate(127.246094 0)"/>
      <use xlink:href="#DejaVuSans-2e" transform="translate(190.869141 0)"/>
      <use xlink:href="#DejaVuSans-32" transform="translate(222.65625 0)"/>
     </g>
    </g>
   </g>
   <g id="text_25">
    <g clip-path="url(#pbf7e5f854b)">
     <!-- 822.6 -->
     <g style="fill: #21918c" transform="translate(362.989151 281.586177) rotate(-55.709055) scale(0.08 -0.08)">
      <use xlink:href="#DejaVuSans-38"/>
      <use xlink:href="#DejaVuSans-32" transform="translate(63.623047 0)"/>
      <use xlink:href="#DejaVuSans-32" transform="translate(127.246094 0)"/>
      <use xlink:href="#DejaVuSans-2e" transform="translate(190.869141 0)"/>
      <use xlink:href="#DejaVuSans-36" transform="translate(222.65625 0)"/>
     </g>
    </g>
   </g>
   <g id="text_26">
    <g clip-path="url(#pbf7e5f854b)">
     <!-- 1192.5 -->
     <g style="fill: #440154" transform="translate(252.939367 195.871044) rotate(-47.544816) scale(0.08 -0.08)">
      <defs>
       <path id="DejaVuSans-39" d="M 703 97 
L 703 672 
Q 941 559 1184 500 
Q 1428 441 1663 441 
Q 2288 441 2617 861 
Q 2947 1281 2994 2138 
Q 2813 1869 2534 1725 
Q 2256 1581 1919 1581 
Q 1219 1581 811 2004 
Q 403 2428 403 3163 
Q 403 3881 828 4315 
Q 1253 4750 1959 4750 
Q 2769 4750 3195 4129 
Q 3622 3509 3622 2328 
Q 3622 1225 3098 567 
Q 2575 -91 1691 -91 
Q 1453 -91 1209 -44 
Q 966 3 703 97 
z
M 1959 2075 
Q 2384 2075 2632 2365 
Q 2881 2656 2881 3163 
Q 2881 3666 2632 3958 
Q 2384 4250 1959 4250 
Q 1534 4250 1286 3958 
Q 1038 3666 1038 3163 
Q 1038 2656 1286 2365 
Q 1534 2075 1959 2075 
z
" transform="scale(0.015625)"/>
      </defs>
      <use xlink:href="#DejaVuSans-31"/>
      <use xlink:href="#DejaVuSans-31" transform="translate(63.623047 0)"/>
      <use xlink:href="#DejaVuSans-39" transform="translate(127.246094 0)"/>
      <use xlink:href="#DejaVuSans-32" transform="translate(190.869141 0)"/>
      <use xlink:href="#DejaVuSans-2e" transform="translate(254.492188 0)"/>
      <use xlink:href="#DejaVuSans-35" transform="translate(286.279297 0)"/>
     </g>
    </g>
   </g>
   <g id="legend_1">
    <g id="patch_7">
     <path d="M 410.348437 106.47625 
L 511.4 106.47625 
Q 513.4 106.47625 513.4 104.47625 
L 513.4 76.12 
Q 513.4 74.12 511.4 74.12 
L 410.348437 74.12 
Q 408.348437 74.12 408.348437 76.12 
L 408.348437 104.47625 
Q 408.348437 106.47625 410.348437 106.47625 
z
" style="fill: #ffffff; opacity: 0.8; stroke: #cccccc; stroke-linejoin: miter"/>
    </g>
    <g id="line2d_19">
     <path d="M 412.348437 82.218438 
L 422.348437 82.218438 
L 432.348437 82.218438 
" style="fill: none; stroke: #000000; stroke-width: 1.5; stroke-linecap: square"/>
    </g>
    <g id="text_27">
     <!-- loss -->
     <g transform="translate(440.348437 85.718438) scale(0.1 -0.1)">
      <defs>
       <path id="DejaVuSans-6c" d="M 603 4863 
L 1178 4863 
L 1178 0 
L 603 0 
L 603 4863 
z
" transform="scale(0.015625)"/>
       <path id="DejaVuSans-6f" d="M 1959 3097 
Q 1497 3097 1228 2736 
Q 959 2375 959 1747 
Q 959 1119 1226 758 
Q 1494 397 1959 397 
Q 2419 397 2687 759 
Q 2956 1122 2956 1747 
Q 2956 2369 2687 2733 
Q 2419 3097 1959 3097 
z
M 1959 3584 
Q 2709 3584 3137 3096 
Q 3566 2609 3566 1747 
Q 3566 888 3137 398 
Q 2709 -91 1959 -91 
Q 1206 -91 779 398 
Q 353 888 353 1747 
Q 353 2609 779 3096 
Q 1206 3584 1959 3584 
z
" transform="scale(0.015625)"/>
       <path id="DejaVuSans-73" d="M 2834 3397 
L 2834 2853 
Q 2591 2978 2328 3040 
Q 2066 3103 1784 3103 
Q 1356 3103 1142 2972 
Q 928 2841 928 2578 
Q 928 2378 1081 2264 
Q 1234 2150 1697 2047 
L 1894 2003 
Q 2506 1872 2764 1633 
Q 3022 1394 3022 966 
Q 3022 478 2636 193 
Q 2250 -91 1575 -91 
Q 1294 -91 989 -36 
Q 684 19 347 128 
L 347 722 
Q 666 556 975 473 
Q 1284 391 1588 391 
Q 1994 391 2212 530 
Q 2431 669 2431 922 
Q 2431 1156 2273 1281 
Q 2116 1406 1581 1522 
L 1381 1569 
Q 847 1681 609 1914 
Q 372 2147 372 2553 
Q 372 3047 722 3315 
Q 1072 3584 1716 3584 
Q 2034 3584 2315 3537 
Q 2597 3491 2834 3397 
z
" transform="scale(0.015625)"/>
      </defs>
      <use xlink:href="#DejaVuSans-6c"/>
      <use xlink:href="#DejaVuSans-6f" transform="translate(27.783203 0)"/>
      <use xlink:href="#DejaVuSans-73" transform="translate(88.964844 0)"/>
      <use xlink:href="#DejaVuSans-73" transform="translate(141.064453 0)"/>
     </g>
    </g>
    <g id="line2d_20">
     <path d="M 412.348437 96.896563 
L 422.348437 96.896563 
L 432.348437 96.896563 
" style="fill: none; stroke-dasharray: 5.55,2.4; stroke-dashoffset: 0; stroke: #000000; stroke-width: 1.5"/>
    </g>
    <g id="text_28">
     <!-- regularization -->
     <g transform="translate(440.348437 100.396563) scale(0.1 -0.1)">
      <defs>
       <path id="DejaVuSans-72" d="M 2631 2963 
Q 2534 3019 2420 3045 
Q 2306 3072 2169 3072 
Q 1681 3072 1420 2755 
Q 1159 2438 1159 1844 
L 1159 0 
L 581 0 
L 581 3500 
L 1159 3500 
L 1159 2956 
Q 1341 3275 1631 3429 
Q 1922 3584 2338 3584 
Q 2397 3584 2469 3576 
Q 2541 3569 2628 3553 
L 2631 2963 
z
" transform="scale(0.015625)"/>
       <path id="DejaVuSans-65" d="M 3597 1894 
L 3597 1613 
L 953 1613 
Q 991 1019 1311 708 
Q 1631 397 2203 397 
Q 2534 397 2845 478 
Q 3156 559 3463 722 
L 3463 178 
Q 3153 47 2828 -22 
Q 2503 -91 2169 -91 
Q 1331 -91 842 396 
Q 353 884 353 1716 
Q 353 2575 817 3079 
Q 1281 3584 2069 3584 
Q 2775 3584 3186 3129 
Q 3597 2675 3597 1894 
z
M 3022 2063 
Q 3016 2534 2758 2815 
Q 2500 3097 2075 3097 
Q 1594 3097 1305 2825 
Q 1016 2553 972 2059 
L 3022 2063 
z
" transform="scale(0.015625)"/>
       <path id="DejaVuSans-67" d="M 2906 1791 
Q 2906 2416 2648 2759 
Q 2391 3103 1925 3103 
Q 1463 3103 1205 2759 
Q 947 2416 947 1791 
Q 947 1169 1205 825 
Q 1463 481 1925 481 
Q 2391 481 2648 825 
Q 2906 1169 2906 1791 
z
M 3481 434 
Q 3481 -459 3084 -895 
Q 2688 -1331 1869 -1331 
Q 1566 -1331 1297 -1286 
Q 1028 -1241 775 -1147 
L 775 -588 
Q 1028 -725 1275 -790 
Q 1522 -856 1778 -856 
Q 2344 -856 2625 -561 
Q 2906 -266 2906 331 
L 2906 616 
Q 2728 306 2450 153 
Q 2172 0 1784 0 
Q 1141 0 747 490 
Q 353 981 353 1791 
Q 353 2603 747 3093 
Q 1141 3584 1784 3584 
Q 2172 3584 2450 3431 
Q 2728 3278 2906 2969 
L 2906 3500 
L 3481 3500 
L 3481 434 
z
" transform="scale(0.015625)"/>
       <path id="DejaVuSans-75" d="M 544 1381 
L 544 3500 
L 1119 3500 
L 1119 1403 
Q 1119 906 1312 657 
Q 1506 409 1894 409 
Q 2359 409 2629 706 
Q 2900 1003 2900 1516 
L 2900 3500 
L 3475 3500 
L 3475 0 
L 2900 0 
L 2900 538 
Q 2691 219 2414 64 
Q 2138 -91 1772 -91 
Q 1169 -91 856 284 
Q 544 659 544 1381 
z
M 1991 3584 
L 1991 3584 
z
" transform="scale(0.015625)"/>
       <path id="DejaVuSans-61" d="M 2194 1759 
Q 1497 1759 1228 1600 
Q 959 1441 959 1056 
Q 959 750 1161 570 
Q 1363 391 1709 391 
Q 2188 391 2477 730 
Q 2766 1069 2766 1631 
L 2766 1759 
L 2194 1759 
z
M 3341 1997 
L 3341 0 
L 2766 0 
L 2766 531 
Q 2569 213 2275 61 
Q 1981 -91 1556 -91 
Q 1019 -91 701 211 
Q 384 513 384 1019 
Q 384 1609 779 1909 
Q 1175 2209 1959 2209 
L 2766 2209 
L 2766 2266 
Q 2766 2663 2505 2880 
Q 2244 3097 1772 3097 
Q 1472 3097 1187 3025 
Q 903 2953 641 2809 
L 641 3341 
Q 956 3463 1253 3523 
Q 1550 3584 1831 3584 
Q 2591 3584 2966 3190 
Q 3341 2797 3341 1997 
z
" transform="scale(0.015625)"/>
       <path id="DejaVuSans-69" d="M 603 3500 
L 1178 3500 
L 1178 0 
L 603 0 
L 603 3500 
z
M 603 4863 
L 1178 4863 
L 1178 4134 
L 603 4134 
L 603 4863 
z
" transform="scale(0.015625)"/>
       <path id="DejaVuSans-7a" d="M 353 3500 
L 3084 3500 
L 3084 2975 
L 922 459 
L 3084 459 
L 3084 0 
L 275 0 
L 275 525 
L 2438 3041 
L 353 3041 
L 353 3500 
z
" transform="scale(0.015625)"/>
       <path id="DejaVuSans-74" d="M 1172 4494 
L 1172 3500 
L 2356 3500 
L 2356 3053 
L 1172 3053 
L 1172 1153 
Q 1172 725 1289 603 
Q 1406 481 1766 481 
L 2356 481 
L 2356 0 
L 1766 0 
Q 1100 0 847 248 
Q 594 497 594 1153 
L 594 3053 
L 172 3053 
L 172 3500 
L 594 3500 
L 594 4494 
L 1172 4494 
z
" transform="scale(0.015625)"/>
       <path id="DejaVuSans-6e" d="M 3513 2113 
L 3513 0 
L 2938 0 
L 2938 2094 
Q 2938 2591 2744 2837 
Q 2550 3084 2163 3084 
Q 1697 3084 1428 2787 
Q 1159 2491 1159 1978 
L 1159 0 
L 581 0 
L 581 3500 
L 1159 3500 
L 1159 2956 
Q 1366 3272 1645 3428 
Q 1925 3584 2291 3584 
Q 2894 3584 3203 3211 
Q 3513 2838 3513 2113 
z
" transform="scale(0.015625)"/>
      </defs>
      <use xlink:href="#DejaVuSans-72"/>
      <use xlink:href="#DejaVuSans-65" transform="translate(38.863281 0)"/>
      <use xlink:href="#DejaVuSans-67" transform="translate(100.386719 0)"/>
      <use xlink:href="#DejaVuSans-75" transform="translate(163.863281 0)"/>
      <use xlink:href="#DejaVuSans-6c" transform="translate(227.242188 0)"/>
      <use xlink:href="#DejaVuSans-61" transform="translate(255.025391 0)"/>
      <use xlink:href="#DejaVuSans-72" transform="translate(316.304688 0)"/>
      <use xlink:href="#DejaVuSans-69" transform="translate(357.417969 0)"/>
      <use xlink:href="#DejaVuSans-7a" transform="translate(385.201172 0)"/>
      <use xlink:href="#DejaVuSans-61" transform="translate(437.691406 0)"/>
      <use xlink:href="#DejaVuSans-74" transform="translate(498.970703 0)"/>
      <use xlink:href="#DejaVuSans-69" transform="translate(538.179688 0)"/>
      <use xlink:href="#DejaVuSans-6f" transform="translate(565.962891 0)"/>
      <use xlink:href="#DejaVuSans-6e" transform="translate(627.144531 0)"/>
     </g>
    </g>
   </g>
  </g>
 </g>
 <defs>
  <clipPath id="pbf7e5f854b">
   <rect x="72" y="69.12" width="446.4" height="443.52"/>
  </clipPath>
 </defs>
</svg>
